<svg width="204" height="38" viewBox="0 0 204 38" fill="none" xmlns="http://www.w3.org/2000/svg">
<path d="M44.4033 27L42.6577 22.0439H35.834L34.0884 27H31L37.6406 9.08008H40.8877L47.5161 27H44.4033ZM41.9009 19.5293L40.2041 14.6465C40.139 14.4349 40.0454 14.1379 39.9233 13.7554C39.8013 13.3647 39.6792 12.9701 39.5571 12.5713C39.4351 12.1644 39.3333 11.8226 39.252 11.5459C39.1706 11.8796 39.0688 12.2539 38.9468 12.6689C38.8328 13.0758 38.7189 13.4583 38.605 13.8164C38.4992 14.1745 38.4178 14.4512 38.3608 14.6465L36.6519 19.5293H41.9009ZM56.4272 13.2305C56.6551 13.2305 56.9033 13.2427 57.1719 13.2671C57.4404 13.2915 57.6724 13.3241 57.8677 13.3647L57.5991 16.0503C57.4282 16.0015 57.2166 15.9648 56.9644 15.9404C56.7202 15.916 56.5005 15.9038 56.3052 15.9038C55.7925 15.9038 55.3042 15.9893 54.8403 16.1602C54.3765 16.3229 53.9655 16.5752 53.6074 16.917C53.2493 17.2507 52.9686 17.6698 52.7651 18.1743C52.5617 18.6789 52.46 19.2648 52.46 19.9321V27H49.5791V13.4868H51.8252L52.2158 15.8672H52.3501C52.6187 15.387 52.9523 14.9476 53.3511 14.5488C53.7498 14.1501 54.2056 13.8327 54.7183 13.5967C55.2391 13.3525 55.8088 13.2305 56.4272 13.2305ZM65.8145 27.2441C64.5368 27.2441 63.43 26.9959 62.4941 26.4995C61.5583 26.0031 60.8381 25.2422 60.3335 24.2168C59.8289 23.1914 59.5767 21.8893 59.5767 20.3105C59.5767 18.6667 59.8534 17.3239 60.4067 16.2822C60.9601 15.2406 61.7251 14.4715 62.7017 13.9751C63.6864 13.4787 64.8135 13.2305 66.083 13.2305C66.8887 13.2305 67.617 13.3118 68.2681 13.4746C68.9272 13.6292 69.4847 13.8205 69.9404 14.0483L69.0859 16.3433C68.5895 16.1398 68.0809 15.9689 67.5601 15.8306C67.0392 15.6922 66.5387 15.623 66.0586 15.623C65.2692 15.623 64.61 15.798 64.0811 16.1479C63.5602 16.4979 63.1696 17.0187 62.9092 17.7104C62.6569 18.4022 62.5308 19.2607 62.5308 20.2861C62.5308 21.279 62.661 22.1172 62.9214 22.8008C63.1818 23.4762 63.5684 23.9889 64.0811 24.3389C64.5938 24.6807 65.2244 24.8516 65.9731 24.8516C66.7137 24.8516 67.377 24.762 67.9629 24.583C68.5488 24.404 69.1022 24.172 69.623 23.8872V26.3774C69.1104 26.6704 68.561 26.8861 67.9751 27.0244C67.3892 27.1709 66.6689 27.2441 65.8145 27.2441ZM77.8262 24.9248C78.2005 24.9248 78.5708 24.8923 78.937 24.8271C79.3032 24.7539 79.6369 24.6685 79.938 24.5708V26.7437C79.6206 26.882 79.2096 27 78.7051 27.0977C78.2005 27.1953 77.6756 27.2441 77.1304 27.2441C76.3654 27.2441 75.6777 27.118 75.0674 26.8657C74.457 26.6053 73.9728 26.1618 73.6147 25.5352C73.2567 24.9085 73.0776 24.0418 73.0776 22.9351V15.6719H71.2344V14.3901L73.2119 13.377L74.1519 10.4839H75.9585V13.4868H79.8281V15.6719H75.9585V22.8984C75.9585 23.582 76.1294 24.0907 76.4712 24.4243C76.813 24.758 77.2646 24.9248 77.8262 24.9248ZM85.5532 13.4868V27H82.6846V13.4868H85.5532ZM84.1372 8.31104C84.5767 8.31104 84.9551 8.42904 85.2725 8.66504C85.598 8.90104 85.7607 9.30794 85.7607 9.88574C85.7607 10.4554 85.598 10.8623 85.2725 11.1064C84.9551 11.3424 84.5767 11.4604 84.1372 11.4604C83.6815 11.4604 83.2949 11.3424 82.9775 11.1064C82.6683 10.8623 82.5137 10.4554 82.5137 9.88574C82.5137 9.30794 82.6683 8.90104 82.9775 8.66504C83.2949 8.42904 83.6815 8.31104 84.1372 8.31104ZM95.1113 27.2441C93.8337 27.2441 92.7269 26.9959 91.791 26.4995C90.8551 26.0031 90.1349 25.2422 89.6304 24.2168C89.1258 23.1914 88.8735 21.8893 88.8735 20.3105C88.8735 18.6667 89.1502 17.3239 89.7036 16.2822C90.257 15.2406 91.022 14.4715 91.9985 13.9751C92.9832 13.4787 94.1104 13.2305 95.3799 13.2305C96.1855 13.2305 96.9139 13.3118 97.5649 13.4746C98.2241 13.6292 98.7816 13.8205 99.2373 14.0483L98.3828 16.3433C97.8864 16.1398 97.3778 15.9689 96.8569 15.8306C96.3361 15.6922 95.8356 15.623 95.3555 15.623C94.5661 15.623 93.9069 15.798 93.3779 16.1479C92.8571 16.4979 92.4665 17.0187 92.2061 17.7104C91.9538 18.4022 91.8276 19.2607 91.8276 20.2861C91.8276 21.279 91.9578 22.1172 92.2183 22.8008C92.4787 23.4762 92.8652 23.9889 93.3779 24.3389C93.8906 24.6807 94.5213 24.8516 95.27 24.8516C96.0106 24.8516 96.6738 24.762 97.2598 24.583C97.8457 24.404 98.3991 24.172 98.9199 23.8872V26.3774C98.4072 26.6704 97.8579 26.8861 97.272 27.0244C96.686 27.1709 95.9658 27.2441 95.1113 27.2441ZM113.446 27L111.701 22.0439H104.877L103.131 27H100.043L106.684 9.08008H109.931L116.559 27H113.446ZM110.944 19.5293L109.247 14.6465C109.182 14.4349 109.088 14.1379 108.966 13.7554C108.844 13.3647 108.722 12.9701 108.6 12.5713C108.478 12.1644 108.376 11.8226 108.295 11.5459C108.214 11.8796 108.112 12.2539 107.99 12.6689C107.876 13.0758 107.762 13.4583 107.648 13.8164C107.542 14.1745 107.461 14.4512 107.404 14.6465L105.695 19.5293H110.944ZM121.503 27H118.622V8.00586H121.503V27ZM131.049 27.2441C129.771 27.2441 128.664 26.9959 127.729 26.4995C126.793 26.0031 126.072 25.2422 125.568 24.2168C125.063 23.1914 124.811 21.8893 124.811 20.3105C124.811 18.6667 125.088 17.3239 125.641 16.2822C126.194 15.2406 126.959 14.4715 127.936 13.9751C128.921 13.4787 130.048 13.2305 131.317 13.2305C132.123 13.2305 132.851 13.3118 133.502 13.4746C134.162 13.6292 134.719 13.8205 135.175 14.0483L134.32 16.3433C133.824 16.1398 133.315 15.9689 132.794 15.8306C132.274 15.6922 131.773 15.623 131.293 15.623C130.504 15.623 129.844 15.798 129.315 16.1479C128.795 16.4979 128.404 17.0187 128.144 17.7104C127.891 18.4022 127.765 19.2607 127.765 20.2861C127.765 21.279 127.895 22.1172 128.156 22.8008C128.416 23.4762 128.803 23.9889 129.315 24.3389C129.828 24.6807 130.459 24.8516 131.208 24.8516C131.948 24.8516 132.611 24.762 133.197 24.583C133.783 24.404 134.337 24.172 134.857 23.8872V26.3774C134.345 26.6704 133.795 26.8861 133.209 27.0244C132.624 27.1709 131.903 27.2441 131.049 27.2441ZM140.9 8.00586V12.7788C140.9 13.2752 140.884 13.7594 140.851 14.2314C140.827 14.7035 140.798 15.0697 140.766 15.3301H140.924C141.209 14.8581 141.559 14.4715 141.974 14.1704C142.389 13.8612 142.853 13.6292 143.366 13.4746C143.887 13.32 144.44 13.2427 145.026 13.2427C146.059 13.2427 146.938 13.4176 147.663 13.7676C148.387 14.1094 148.94 14.6424 149.323 15.3667C149.713 16.091 149.909 17.0309 149.909 18.1865V27H147.04V18.7236C147.04 17.6738 146.824 16.8885 146.393 16.3677C145.962 15.8387 145.294 15.5742 144.391 15.5742C143.52 15.5742 142.829 15.7573 142.316 16.1235C141.811 16.4816 141.449 17.0146 141.229 17.7227C141.01 18.4225 140.9 19.277 140.9 20.2861V27H138.031V8.00586H140.9ZM159.308 13.2305C160.513 13.2305 161.546 13.4787 162.409 13.9751C163.271 14.4715 163.935 15.1755 164.398 16.0869C164.862 16.9984 165.094 18.0889 165.094 19.3584V20.8965H156.073C156.106 22.2067 156.456 23.2158 157.123 23.9238C157.799 24.6318 158.743 24.9858 159.955 24.9858C160.818 24.9858 161.591 24.9045 162.274 24.7417C162.966 24.5708 163.678 24.3226 164.411 23.9971V26.3286C163.735 26.646 163.048 26.8779 162.348 27.0244C161.648 27.1709 160.81 27.2441 159.833 27.2441C158.507 27.2441 157.339 26.9878 156.33 26.4751C155.329 25.9543 154.543 25.1812 153.974 24.1558C153.412 23.1304 153.131 21.8568 153.131 20.335C153.131 18.8213 153.388 17.5355 153.9 16.4775C154.413 15.4196 155.133 14.6139 156.061 14.0605C156.989 13.5072 158.071 13.2305 159.308 13.2305ZM159.308 15.3911C158.405 15.3911 157.672 15.6841 157.111 16.27C156.557 16.856 156.232 17.7145 156.134 18.8457H162.287C162.278 18.1702 162.165 17.5721 161.945 17.0513C161.733 16.5304 161.408 16.1235 160.968 15.8306C160.537 15.5376 159.984 15.3911 159.308 15.3911ZM183.6 13.2305C185.114 13.2305 186.253 13.6211 187.018 14.4023C187.791 15.1836 188.178 16.4368 188.178 18.1621V27H185.309V18.6748C185.309 17.6494 185.11 16.8763 184.711 16.3555C184.312 15.8346 183.706 15.5742 182.892 15.5742C181.753 15.5742 180.931 15.9404 180.426 16.6729C179.93 17.3971 179.682 18.451 179.682 19.8345V27H176.813V18.6748C176.813 17.9912 176.723 17.4215 176.544 16.9658C176.374 16.502 176.109 16.1561 175.751 15.9282C175.393 15.6922 174.941 15.5742 174.396 15.5742C173.607 15.5742 172.976 15.7533 172.504 16.1113C172.04 16.4694 171.706 16.9984 171.503 17.6982C171.299 18.39 171.198 19.2404 171.198 20.2495V27H168.329V13.4868H170.563L170.966 15.3057H171.125C171.401 14.8337 171.743 14.4471 172.15 14.146C172.565 13.8368 173.025 13.6089 173.529 13.4624C174.034 13.3078 174.559 13.2305 175.104 13.2305C176.113 13.2305 176.964 13.4095 177.655 13.7676C178.347 14.1175 178.864 14.6546 179.206 15.3789H179.425C179.848 14.6465 180.438 14.1053 181.195 13.7554C181.952 13.4054 182.754 13.2305 183.6 13.2305ZM190.143 13.4868H193.268L196.039 21.2017C196.161 21.5516 196.271 21.8975 196.369 22.2393C196.474 22.5729 196.564 22.9025 196.637 23.228C196.719 23.5535 196.784 23.8791 196.833 24.2046H196.906C196.987 23.7814 197.101 23.3094 197.248 22.7886C197.402 22.2596 197.573 21.7306 197.76 21.2017L200.421 13.4868H203.51L197.711 28.8555C197.378 29.7344 196.967 30.4831 196.479 31.1016C195.998 31.7282 195.429 32.2002 194.77 32.5176C194.11 32.8431 193.358 33.0059 192.511 33.0059C192.104 33.0059 191.75 32.9814 191.449 32.9326C191.148 32.8919 190.892 32.8472 190.68 32.7983V30.5034C190.851 30.5441 191.067 30.5807 191.327 30.6133C191.588 30.6458 191.856 30.6621 192.133 30.6621C192.646 30.6621 193.089 30.5604 193.463 30.3569C193.838 30.1535 194.155 29.8646 194.416 29.4902C194.676 29.124 194.892 28.7049 195.062 28.2329L195.539 26.9634L190.143 13.4868Z" fill="#03045E"/>
<path d="M5 3H96C98.2091 3 100 4.79086 100 7V31H1V7C1 4.79086 2.79086 3 5 3Z" stroke="#03045E" stroke-width="2"/>
<path d="M5 37H96C97.8638 37 99.4299 35.7252 99.874 34H1.12602C1.57006 35.7252 3.13616 37 5 37Z" stroke="#03045E" stroke-width="2"/>
</svg>
