<svg width="107" height="50" viewBox="0 0 107 50" fill="none" xmlns="http://www.w3.org/2000/svg">
<g clip-path="url(#clip0_2_150)">
<path d="M70.7502 30H75.7502L82.0002 16.25L92.0002 42.5L98.2502 30H103.25" stroke="#00B295" stroke-width="2" stroke-linecap="round" stroke-linejoin="round"/>
</g>
<path d="M8.66667 31.35C7.52222 31.35 6.50556 31.2389 5.61667 31.0167C4.73889 30.7944 4.01667 30.4944 3.45 30.1167C2.89444 29.7389 2.43333 29.2722 2.06667 28.7167C1.71111 28.15 1.46111 27.5556 1.31667 26.9333C1.17222 26.3111 1.1 25.6222 1.1 24.8667V11.4667H7.03333V24.1167C7.03333 25.5278 7.17778 26.5 7.46667 27.0333C7.76667 27.5556 8.2 27.8167 8.76667 27.8167C9.07778 27.8167 9.35 27.7667 9.58333 27.6667C9.81667 27.5556 10.0333 27.3722 10.2333 27.1167C10.4333 26.85 10.5833 26.4722 10.6833 25.9833C10.7944 25.4833 10.85 24.8778 10.85 24.1667V11.4667H16.1167V24.9667C16.1167 25.7111 16.05 26.3833 15.9167 26.9833C15.7944 27.5833 15.5611 28.1667 15.2167 28.7333C14.8833 29.2889 14.4389 29.7556 13.8833 30.1333C13.3389 30.5 12.6222 30.7944 11.7333 31.0167C10.8556 31.2389 9.83333 31.35 8.66667 31.35ZM23.9197 31H18.5363V20.2167L17.5363 19.6V17.7167L21.1197 16.8333H22.4697L22.953 20.8C23.4086 18.0778 24.8697 16.7167 27.3363 16.7167C27.6141 16.7167 27.903 16.7667 28.203 16.8667L27.6363 22.8C27.403 22.5889 26.8919 22.4833 26.103 22.4833C24.9697 22.4833 24.2419 22.7833 23.9197 23.3833V31ZM38.056 31C36.8115 31 35.7004 30.7389 34.7227 30.2167V31H29.2893V12.15L28.2893 11.55V10L33.6393 9.16667H34.7227V18.1333C34.9004 17.9333 35.0949 17.7444 35.306 17.5667C35.5171 17.3889 35.7727 17.2167 36.0727 17.05C36.3727 16.8833 36.7115 16.75 37.0893 16.65C37.4782 16.55 37.8893 16.5 38.3227 16.5C40.156 16.5 41.5004 17.1278 42.356 18.3833C43.2227 19.6389 43.656 21.3778 43.656 23.6C43.656 24.6444 43.5393 25.6111 43.306 26.5C43.0727 27.3778 42.7282 28.1556 42.2727 28.8333C41.8171 29.5111 41.2282 30.0444 40.506 30.4333C39.7949 30.8111 38.9782 31 38.056 31ZM35.606 28.6833C37.0949 28.6833 37.8393 27.5444 37.8393 25.2667V22.4333C37.8393 21.4778 37.6615 20.7444 37.306 20.2333C36.9615 19.7111 36.5171 19.45 35.9727 19.45C35.5615 19.45 35.1449 19.6 34.7227 19.9V28.5667C34.8893 28.6111 35.0449 28.6444 35.1893 28.6667C35.3338 28.6778 35.4727 28.6833 35.606 28.6833ZM52.5918 29.5167L52.4251 29.7C52.314 29.8333 52.1418 29.9889 51.9085 30.1667C51.6862 30.3444 51.4251 30.5222 51.1251 30.7C50.8362 30.8778 50.4807 31.0278 50.0585 31.15C49.6362 31.2833 49.2029 31.35 48.7585 31.35C45.7585 31.35 44.2585 29.8667 44.2585 26.9C44.2585 26.3222 44.364 25.7944 44.5751 25.3167C44.7862 24.8278 45.0585 24.4167 45.3918 24.0833C45.7251 23.75 46.1251 23.4556 46.5918 23.2C47.0585 22.9333 47.5251 22.7278 47.9918 22.5833C48.4696 22.4278 48.9696 22.3 49.4918 22.2C50.014 22.1 50.4807 22.0333 50.8918 22C51.3029 21.9667 51.6974 21.95 52.0751 21.95V21.65C52.0751 20.9722 51.8918 20.4944 51.5251 20.2167C51.1696 19.9389 50.5918 19.8 49.7918 19.8C49.1029 19.8 48.3862 19.8833 47.6418 20.05C46.8974 20.2056 46.314 20.3944 45.8918 20.6167L44.8251 18.35C45.5807 17.8611 46.564 17.4333 47.7751 17.0667C48.9862 16.6889 50.2196 16.5 51.4751 16.5C52.5862 16.5 53.5029 16.6111 54.2251 16.8333C54.9474 17.0444 55.5307 17.4111 55.9751 17.9333C56.4307 18.4444 56.7529 19.1 56.9418 19.9C57.1307 20.6889 57.2251 21.6944 57.2251 22.9167V29.7L57.6918 31H53.1251L52.5918 29.5167ZM51.2751 28.4167C51.4196 28.4167 51.5529 28.3889 51.6751 28.3333C51.8085 28.2667 51.9085 28.2056 51.9751 28.15C52.0418 28.0833 52.0751 28.05 52.0751 28.05V24.05C51.3974 24.05 50.8585 24.2389 50.4585 24.6167C50.0585 24.9833 49.8585 25.5556 49.8585 26.3333C49.8585 27.7222 50.3307 28.4167 51.2751 28.4167Z" fill="#EAEAEA"/>
<path d="M64.7434 31H59.3601V20.2167L58.3601 19.6V17.8167L61.9434 16.8333H64.7767V18.9833L64.9767 18.7333C65.1101 18.5556 65.3045 18.3444 65.5601 18.1C65.8267 17.8556 66.1212 17.6167 66.4434 17.3833C66.7656 17.1389 67.1489 16.9333 67.5934 16.7667C68.0489 16.5889 68.4934 16.5 68.9267 16.5C70.4489 16.5 71.5212 16.9167 72.1434 17.75C72.7767 18.5833 73.0934 19.9778 73.0934 21.9333C73.0934 22 73.0934 22.1 73.0934 22.2333C73.0823 22.3667 73.0767 22.4722 73.0767 22.55V31H67.5767V22.0667C67.6101 21.0222 67.1656 20.5 66.2434 20.5C66.1767 20.5 66.1101 20.5056 66.0434 20.5167C65.9878 20.5278 65.9323 20.5389 65.8767 20.55C65.8323 20.5611 65.7767 20.5833 65.7101 20.6167C65.6545 20.6389 65.6045 20.6611 65.5601 20.6833C65.5156 20.6944 65.4656 20.7222 65.4101 20.7667C65.3545 20.8 65.3101 20.8278 65.2767 20.85C65.2434 20.8722 65.1934 20.9111 65.1267 20.9667C65.0712 21.0111 65.0267 21.0444 64.9934 21.0667C64.9712 21.0889 64.9267 21.1278 64.8601 21.1833C64.8045 21.2278 64.7656 21.2611 64.7434 21.2833V31Z" fill="#00B295"/>
<defs>
<clipPath id="clip0_2_150">
<rect width="40" height="40" fill="white" transform="translate(67 10)"/>
</clipPath>
</defs>
</svg>
