<svg width="172" height="80" viewBox="0 0 172 80" fill="none" xmlns="http://www.w3.org/2000/svg">
<g clip-path="url(#clip0_2_159)">
<mask id="mask0_2_159" style="mask-type:luminance" maskUnits="userSpaceOnUse" x="107" y="16" width="65" height="64">
<path d="M171.2 16H107.2V80H171.2V16Z" fill="white"/>
</mask>
<g mask="url(#mask0_2_159)">
<path d="M113.2 48H121.2L131.2 26L147.2 68L157.2 48H165.2" stroke="#00B295" stroke-width="2" stroke-linecap="round" stroke-linejoin="round"/>
</g>
<path d="M13.8667 50.16C12.0356 50.16 10.4089 49.9823 8.98668 49.6267C7.58223 49.2711 6.42668 48.7911 5.52001 48.1867C4.63111 47.5823 3.89334 46.8355 3.30668 45.9467C2.73779 45.04 2.33779 44.089 2.10668 43.0933C1.87556 42.0978 1.76001 40.9955 1.76001 39.7867V18.3467H11.2533V38.5867C11.2533 40.8445 11.4845 42.4 11.9467 43.2533C12.4267 44.089 13.12 44.5067 14.0267 44.5067C14.5245 44.5067 14.96 44.4267 15.3333 44.2667C15.7067 44.089 16.0533 43.7955 16.3733 43.3867C16.6933 42.96 16.9333 42.3555 17.0933 41.5733C17.271 40.7733 17.36 39.8045 17.36 38.6667V18.3467H25.7867V39.9467C25.7867 41.1378 25.68 42.2133 25.4667 43.1733C25.2711 44.1333 24.8978 45.0667 24.3467 45.9733C23.8133 46.8623 23.1022 47.609 22.2133 48.2133C21.3422 48.8 20.1955 49.2711 18.7733 49.6267C17.369 49.9823 15.7333 50.16 13.8667 50.16ZM38.2715 49.6H29.6581V32.3467L28.0581 31.36V28.3467L33.7915 26.9333H35.9515L36.7248 33.28C37.4538 28.9245 39.7915 26.7467 43.7381 26.7467C44.1826 26.7467 44.6448 26.8267 45.1248 26.9867L44.2181 36.48C43.8448 36.1423 43.0271 35.9733 41.7648 35.9733C39.9515 35.9733 38.7871 36.4533 38.2715 37.4133V49.6ZM60.8896 49.6C58.8984 49.6 57.1207 49.1823 55.5563 48.3467V49.6H46.8629V19.44L45.2629 18.48V16L53.8229 14.6667H55.5563V29.0133C55.8407 28.6933 56.1519 28.3911 56.4896 28.1067C56.8274 27.8223 57.2363 27.5467 57.7163 27.28C58.1963 27.0133 58.7384 26.8 59.3429 26.64C59.9651 26.48 60.6229 26.4 61.3163 26.4C64.2496 26.4 66.4007 27.4045 67.7696 29.4133C69.1563 31.4223 69.8496 34.2045 69.8496 37.76C69.8496 39.4311 69.6629 40.9778 69.2896 42.4C68.9163 43.8045 68.3651 45.049 67.6363 46.1333C66.9074 47.2178 65.9651 48.0711 64.8096 48.6933C63.6719 49.2978 62.3651 49.6 60.8896 49.6ZM56.9696 45.8933C59.3519 45.8933 60.5429 44.0711 60.5429 40.4267V35.8933C60.5429 34.3645 60.2584 33.1911 59.6896 32.3733C59.1384 31.5378 58.4274 31.12 57.5563 31.12C56.8984 31.12 56.2319 31.36 55.5563 31.84V45.7067C55.8229 45.7778 56.0719 45.8311 56.3029 45.8667C56.5341 45.8845 56.7563 45.8933 56.9696 45.8933ZM84.1469 47.2267L83.8802 47.52C83.7024 47.7333 83.4269 47.9823 83.0536 48.2667C82.6979 48.5511 82.2802 48.8355 81.8002 49.12C81.3379 49.4045 80.7691 49.6445 80.0936 49.84C79.4179 50.0533 78.7247 50.16 78.0136 50.16C73.2136 50.16 70.8136 47.7867 70.8136 43.04C70.8136 42.1155 70.9824 41.2711 71.3202 40.5067C71.6579 39.7245 72.0936 39.0667 72.6269 38.5333C73.1602 38 73.8002 37.529 74.5469 37.12C75.2936 36.6933 76.0402 36.3645 76.7869 36.1333C77.5514 35.8845 78.3514 35.68 79.1869 35.52C80.0224 35.36 80.7691 35.2533 81.4269 35.2C82.0847 35.1467 82.7159 35.12 83.3202 35.12V34.64C83.3202 33.5555 83.0269 32.7911 82.4402 32.3467C81.8714 31.9023 80.9469 31.68 79.6669 31.68C78.5647 31.68 77.4179 31.8133 76.2269 32.08C75.0359 32.329 74.1024 32.6311 73.4269 32.9867L71.7202 29.36C72.9291 28.5778 74.5024 27.8933 76.4402 27.3067C78.3779 26.7023 80.3514 26.4 82.3602 26.4C84.1379 26.4 85.6047 26.5778 86.7602 26.9333C87.9159 27.2711 88.8491 27.8578 89.5602 28.6933C90.2891 29.5111 90.8047 30.56 91.1069 31.84C91.4091 33.1023 91.5602 34.7111 91.5602 36.6667V47.52L92.3069 49.6H85.0002L84.1469 47.2267ZM82.0402 45.4667C82.2714 45.4667 82.4847 45.4223 82.6802 45.3333C82.8936 45.2267 83.0536 45.129 83.1602 45.04C83.2669 44.9333 83.3202 44.88 83.3202 44.88V38.48C82.2359 38.48 81.3736 38.7823 80.7336 39.3867C80.0936 39.9733 79.7736 40.889 79.7736 42.1333C79.7736 44.3555 80.5291 45.4667 82.0402 45.4667Z" fill="#00487C"/>
<path d="M103.59 49.6H94.9762V32.3467L93.3762 31.36V28.5067L99.1095 26.9333H103.643V30.3733L103.963 29.9733C104.176 29.689 104.487 29.351 104.896 28.96C105.323 28.569 105.794 28.1867 106.309 27.8133C106.825 27.4222 107.438 27.0933 108.149 26.8267C108.878 26.5422 109.589 26.4 110.283 26.4C112.718 26.4 114.434 27.0667 115.43 28.4C116.443 29.7333 116.949 31.9645 116.949 35.0933C116.949 35.2 116.949 35.36 116.949 35.5733C116.932 35.7867 116.923 35.9555 116.923 36.08V49.6H108.123V35.3067C108.176 33.6355 107.465 32.8 105.99 32.8C105.883 32.8 105.776 32.809 105.67 32.8267C105.581 32.8445 105.492 32.8622 105.403 32.88C105.332 32.8978 105.243 32.9333 105.136 32.9867C105.047 33.0222 104.967 33.0578 104.896 33.0933C104.825 33.111 104.745 33.1555 104.656 33.2267C104.567 33.28 104.496 33.3245 104.443 33.36C104.39 33.3955 104.31 33.4578 104.203 33.5467C104.114 33.6178 104.043 33.671 103.99 33.7067C103.954 33.7422 103.883 33.8045 103.776 33.8933C103.687 33.9645 103.625 34.0178 103.59 34.0533V49.6Z" fill="#00B295"/>
</g>
<defs>
<clipPath id="clip0_2_159">
<rect width="171.2" height="80" fill="white"/>
</clipPath>
</defs>
</svg>
